<svg id="Nintendo_Switch" data-name="Nintendo Switch" xmlns="http://www.w3.org/2000/svg" width="40" height="40" viewBox="0 0 40 40">
  <g id="Group_550" data-name="Group 550">
    <g id="Group_549" data-name="Group 549">
      <path id="Path_233" data-name="Path 233" d="M16.841,0H6.2A6.293,6.293,0,0,0,0,6.364V33.636A6.293,6.293,0,0,0,6.2,40H16.841a.9.9,0,0,0,.886-.909V.909A.9.9,0,0,0,16.841,0ZM8.864,16.364a4.547,4.547,0,0,1,0-9.091,4.547,4.547,0,0,1,0,9.091Z" transform="translate(0 0)"/>
      <path id="Path_234" data-name="Path 234" d="M267.523,0H256.886A.9.9,0,0,0,256,.909V39.091a.9.9,0,0,0,.886.909h10.636a6.293,6.293,0,0,0,6.2-6.364V6.364A6.293,6.293,0,0,0,267.523,0Zm-2.659,27.273a4.547,4.547,0,1,1,4.432-4.545A4.494,4.494,0,0,1,264.864,27.273Z" transform="translate(-233.727 0)"/>
    </g>
  </g>
</svg>
