<svg id="PC" xmlns="http://www.w3.org/2000/svg" width="40" height="27.344" viewBox="0 0 40 27.344">
  <path id="Path_235" data-name="Path 235" d="M350.672,86V83.344A2.416,2.416,0,0,0,348.25,81h-8.906A2.346,2.346,0,0,0,337,83.344V86Z" transform="translate(-310.672 -81)"/>
  <path id="Path_236" data-name="Path 236" d="M337,175v17.656A2.346,2.346,0,0,0,339.344,195h8.906a2.416,2.416,0,0,0,2.422-2.344V175Zm7.137,14.949a1.172,1.172,0,1,1,.809-1.35A1.17,1.17,0,0,1,344.137,189.949Zm0-5a1.172,1.172,0,1,1,.809-1.35A1.171,1.171,0,0,1,344.137,184.949Z" transform="translate(-310.672 -167.656)"/>
  <path id="Path_237" data-name="Path 237" d="M21.328,81H2.344A2.347,2.347,0,0,0,0,83.344V99.2a2.347,2.347,0,0,0,2.344,2.344H21.328A2.347,2.347,0,0,0,23.672,99.2V83.344A2.347,2.347,0,0,0,21.328,81Z" transform="translate(0 -81)"/>
  <path id="Path_238" data-name="Path 238" d="M70.672,376.109H68.094V374H60.75v2.109H58.172a1.172,1.172,0,0,0,0,2.344h12.5a1.172,1.172,0,0,0,0-2.344Z" transform="translate(-52.547 -351.109)"/>
</svg>
