<svg id="Playstation" xmlns="http://www.w3.org/2000/svg" width="40" height="32.167" viewBox="0 0 40 32.167">
  <path id="Playstation-2" data-name="Playstation" d="M15.543,3.742V33.909l6.543,2V10.648c0-.727,0-1.089.363-1.454.181-.363.544-.363.907-.181a2.376,2.376,0,0,1,1.457,2.545V21.55q3.27,1.635,5.45,0c1.454-1.09,2.182-2.724,2.182-5.45,0-2.907-.545-4.725-1.817-6.178-1.09-1.454-3.088-2.727-6-3.636C21,5.2,17.906,4.288,15.543,3.742Zm-1.816,18.9-8.36,2.907L4.1,26.1c-2,.909-3.089,1.818-3.089,2.726.181,1.09.544,2.546,3.27,3.454,2.544.909,4.543,1.272,9.632-.181V28.822C9,30.456,8.276,30.276,7.548,29.913S6.82,29.185,7,29a20.931,20.931,0,0,1,2.545-1.091l4.18-1.454Zm18.492,1.415a16.05,16.05,0,0,0-1.772.036,24.033,24.033,0,0,0-6,.91v3.817l4-1.457,2.179-.725s.911-.181,1.457-.363a4.6,4.6,0,0,1,2,.181c.546,0,.91.18.91.544.181.363-.182.547-1.091.91l-2,.728-7.269,2.723v3.817L27.9,34.09l9.085-3.27,1.091-.547c2.18-.727,3.089-1.636,2.907-2.726,0-1.089-1.272-1.815-3.452-2.542A20.4,20.4,0,0,0,32.218,24.059Z" transform="translate(-1.008 -3.742)"/>
</svg>
