<svg id="Xbox" xmlns="http://www.w3.org/2000/svg" width="40" height="40" viewBox="0 0 40 40">
  <path id="Xbox-2" data-name="Xbox" d="M22.007,2A19.5,19.5,0,0,0,11.769,4.87a3.231,3.231,0,0,0-.819.579c2.648-2.1,8.771,2.11,10.559,3.364a.863.863,0,0,0,1,0c1.788-1.255,7.911-5.469,10.559-3.364a3.247,3.247,0,0,0-.819-.579A19.507,19.507,0,0,0,22.007,2ZM9.833,7.217a3.618,3.618,0,0,0-2.4,1.131,19.976,19.976,0,1,0,29.327,27.13,17.661,17.661,0,0,0-3.123-6.435c-3.008-4.537-9.1-10.25-11.051-12a.858.858,0,0,0-1.16.005c-1.47,1.345-5.261,5.11-6.1,6.087-2,2.087-7.549,8.695-7.9,12.434,0,0-1.215-2.956,1.474-9.738,1.674-4.075,6.873-10.133,9.394-12.775a.869.869,0,0,0-.027-1.236,32.967,32.967,0,0,0-4.535-3.207A8.479,8.479,0,0,0,9.833,7.217Zm24.078,0c-.568,0-4.257,1.168-8.139,4.608a.863.863,0,0,0-.041,1.245,58.5,58.5,0,0,1,7.556,8.843c2.863,4.7,4.6,8.434,3.556,13.565A20.051,20.051,0,0,0,42.051,22,20.422,20.422,0,0,0,36.67,8.435l-.26-.262A3.268,3.268,0,0,0,33.911,7.217Z" transform="translate(-2.051 -2)"/>
</svg>
