<svg id="Nintendo_Wii" data-name="Nintendo Wii" xmlns="http://www.w3.org/2000/svg" width="40" height="19.493" viewBox="0 0 40 19.493">
  <path id="Nintendo_Wii-2" data-name="Nintendo Wii" d="M30.634,13a2.543,2.543,0,1,0,2.543,2.543A2.548,2.548,0,0,0,30.634,13Zm7.628,0A2.543,2.543,0,1,0,40.8,15.543,2.548,2.548,0,0,0,38.262,13ZM13.6,13.848l-.185.027a1.516,1.516,0,0,0-.556.159,3.04,3.04,0,0,0-1.722,2.278c-.354,1.573-.338.7-2.543,10.091L5.34,14.642a.85.85,0,0,0-.821-.636H1.659a.879.879,0,0,0-.689.344.847.847,0,0,0-.132.742L4.811,28.944C5.046,30.2,6.1,32.493,8.439,32.493c2.374,0,3.4-2.331,3.6-3.5l1.642-6.065L15.3,28.918c.218,1.238,1.255,3.575,3.628,3.575,2.344,0,3.393-2.3,3.629-3.549l3.973-13.852a.847.847,0,0,0-.132-.742.879.879,0,0,0-.689-.344H22.794a.85.85,0,0,0-.821.636L18.742,26.481c-.063-.235-.132-.507-.212-.795-.55-2.073-1.914-7.28-2.384-9.3a2.991,2.991,0,0,0-2.172-2.49.747.747,0,0,0-.079-.026A1.317,1.317,0,0,0,13.6,13.848ZM28.939,19.78a.847.847,0,0,0-.848.848V31.646a.845.845,0,0,0,.848.848h3.39a.845.845,0,0,0,.848-.848V20.628a.847.847,0,0,0-.848-.848Zm7.628,0a.847.847,0,0,0-.848.848V31.646a.845.845,0,0,0,.848.848h3.39a.845.845,0,0,0,.848-.848V20.628a.847.847,0,0,0-.848-.848Z" transform="translate(-0.804 -13)"/>
</svg>
