<svg xmlns="http://www.w3.org/2000/svg" width="60.419" height="90.628" viewBox="0 0 60.419 90.628">
  <g id="Group_478" data-name="Group 478" transform="translate(-47.061 -626.246)">
    <path id="Path_1183" data-name="Path 1183" d="M107.48,626.246H47.061v90.628H107.48V626.246Z" fill="#fff"/>
    <g id="Group_477" data-name="Group 477" transform="translate(47.938 627.219)">
      <g id="Group_473" data-name="Group 473">
        <path id="Path_1184" data-name="Path 1184" d="M106.3,626.885v88.688H47.637V626.885H106.3" transform="translate(-47.637 -626.885)" fill="#1a1818"/>
      </g>
      <rect id="Rectangle_323" data-name="Rectangle 323" width="52.337" height="14.706" transform="translate(2.952 3.152)" fill="#fff"/>
      <rect id="Rectangle_324" data-name="Rectangle 324" width="52.367" height="54.063" transform="translate(2.929 21.064)" fill="#fff"/>
      <g id="Group_474" data-name="Group 474" transform="translate(2.939 78.135)">
        <path id="Path_1185" data-name="Path 1185" d="M49.567,685.5v-7.178H60.081V680H53.791v1.026h5.323V682.7H53.791v1.123h6.533V685.5Z" transform="translate(-49.567 -678.146)" fill="#fff"/>
        <path id="Path_1186" data-name="Path 1186" d="M65.028,680.478a.79.79,0,0,0-.609-.484,3.794,3.794,0,0,0-1.092-.134c-.929,0-1.346.152-1.346.421,0,1.061,7.413.394,7.413,3.005,0,1.662-2.492,2.474-6.033,2.474-3.4,0-5.619-1.107-5.709-2.4H61.7a1.02,1.02,0,0,0,.7.565,3.828,3.828,0,0,0,1.2.181c1.055,0,1.757-.187,1.757-.527,0-1.087-7.419-.341-7.419-3.077,0-1.526,2.363-2.29,5.589-2.29,3.576,0,5.207,1.014,5.518,2.269Z" transform="translate(-45.338 -678.211)" fill="#fff"/>
        <path id="Path_1187" data-name="Path 1187" d="M70.972,681.435h1.661c1.308,0,2.01-.19,2.01-.684s-.715-.749-1.7-.749H70.972Zm0,1.565v2.5H66.749v-7.179h6.089c4.292,0,5.708.658,5.708,2.052,0,.83-.659,1.519-2.165,1.76,1.359.274,2.185.443,2.185,1.891,0,.935-.055,1.259.446,1.259v.216H74.728a2.786,2.786,0,0,1-.21-1.255c0-.943-.288-1.245-2.256-1.245Z" transform="translate(-40.59 -678.146)" fill="#fff"/>
        <path id="Path_1188" data-name="Path 1188" d="M80.423,680v1.2h1.76c.841,0,1.452-.218,1.452-.627,0-.562-.833-.574-1.72-.574Zm0,2.5v1.322h1.842c1.048,0,1.833-.122,1.833-.656,0-.627-.982-.667-2.333-.667Zm-4.223,3v-7.179h6.162c2.9,0,5.211.39,5.211,1.812,0,.74-.863,1.279-1.683,1.557,1.395.2,2.144.874,2.144,1.644,0,1.6-2.2,2.165-5.551,2.165Z" transform="translate(-35.65 -678.146)" fill="#fff"/>
      </g>
      <g id="Group_475" data-name="Group 475" transform="translate(4.414 25.515)">
        <path id="Path_1189" data-name="Path 1189" d="M77.175,670.342c-.874-3.235-2.609-5.128-5.08-5.789,1.538-1.8,2.412-4.58,1.235-8.949-1.654-6.1-5.851-9.059-10.953-7.7l-11.6,3.087-.238.061,9.61,35.553,7.761-2.069s-3.148-11.642-3.7-13.693l.379-.1a3.573,3.573,0,0,1,2.633.032c1.028.589,1.5,2.367,2.046,4.424l.434,1.638a15.279,15.279,0,0,0,2.378,5.769l.521.687,8.878-2.352-1.192-1.526C79.682,678.647,78.19,674.1,77.175,670.342Zm-12.7-6.353s-1,.266-1.977.525c-.58-2.142-1.909-7.068-2.489-9.214.974-.252,1.977-.521,1.977-.521.94-.247,2.511-.667,3.66,3.59.22.826,1.221,4.982-1.171,5.619Z" transform="translate(-50.535 -641.584)" fill="#1a1818"/>
        <path id="Path_1190" data-name="Path 1190" d="M78.439,644.057l-10.453,2.777-1.256.332,9.606,35.558,7.934-2.1s-3.091-11.428-3.646-13.466c1.34-.361,3.412-.9,3.412-.9,6.189-1.652,8.555-6.449,6.641-13.506C88.191,643.541,82.655,642.943,78.439,644.057Zm3.234,15.778s-1.527.408-2.824.752c-.565-2.1-1.923-7.106-2.485-9.208l2.407-.638c1.367-.367,2.929-.367,4.169,4.214.592,2.179-.024,4.552-1.267,4.881Z" transform="translate(-42.075 -643.644)" fill="#1a1818"/>
      </g>
      <g id="Group_476" data-name="Group 476" transform="translate(4.403 6.192)">
        <path id="Path_1191" data-name="Path 1191" d="M51.573,639.4H50.529v-8.349h1.929a.953.953,0,0,1,.854.554,3.393,3.393,0,0,1,.313,1.631,3.76,3.76,0,0,1-.21,1.354,1.047,1.047,0,0,1-.715.694v.023c.056.015.134.038.234.07a.686.686,0,0,1,.3.207,1.406,1.406,0,0,1,.259.481,2.819,2.819,0,0,1,.11.884c0,.131,0,.317,0,.554s.008.486.017.741.023.488.038.7a2.675,2.675,0,0,0,.059.452H52.7a3.123,3.123,0,0,1-.108-.8c0-.279,0-.551,0-.82,0-.247,0-.483,0-.706a2.393,2.393,0,0,0-.072-.583.835.835,0,0,0-.221-.4.629.629,0,0,0-.451-.149h-.271Zm0-4.743h.463a.333.333,0,0,0,.257-.114.871.871,0,0,0,.165-.295,2,2,0,0,0,.088-.4c.014-.146.023-.286.023-.417a1.815,1.815,0,0,0-.143-.849.428.428,0,0,0-.39-.247h-.463Z" transform="translate(-50.529 -630.903)" fill="#1a1818"/>
        <path id="Path_1192" data-name="Path 1192" d="M52.818,639.4l1.381-8.349h1.375l1.355,8.349h-1.1l-.277-1.851H54.13l-.283,1.851Zm2.011-6.742h-.015l-.478,3.608h1Z" transform="translate(-49.333 -630.903)" fill="#1a1818"/>
        <path id="Path_1193" data-name="Path 1193" d="M58.675,631.044v1.388h-1.16v6.961H56.471V632.43H55.309v-1.388Z" transform="translate(-48.031 -630.9)" fill="#1a1818"/>
        <path id="Path_1194" data-name="Path 1194" d="M57.838,639.4v-8.349h1.043V639.4Z" transform="translate(-46.71 -630.903)" fill="#1a1818"/>
        <path id="Path_1195" data-name="Path 1195" d="M59.1,639.4v-8.349h1.408l1.327,5.782h.014v-5.782h.974V639.4H61.449l-1.358-6.1h-.015v6.1Z" transform="translate(-46.046 -630.903)" fill="#1a1818"/>
        <path id="Path_1196" data-name="Path 1196" d="M64.424,633.655c0-.192-.006-.379-.018-.553a1.841,1.841,0,0,0-.084-.463.816.816,0,0,0-.189-.32.468.468,0,0,0-.332-.12.405.405,0,0,0-.373.253,2.216,2.216,0,0,0-.195.684,7.574,7.574,0,0,0-.072.988c-.009.375-.012.761-.012,1.163,0,.653.012,1.183.037,1.583a5.511,5.511,0,0,0,.116.932.819.819,0,0,0,.228.443.568.568,0,0,0,.365.116.813.813,0,0,0,.266-.042,1.878,1.878,0,0,0,.252-.116v-1.851h-.563v-1.284h1.609V639.3c-.069.023-.163.05-.28.081s-.244.061-.376.093-.268.055-.4.076a2.927,2.927,0,0,1-.353.027A2.013,2.013,0,0,1,63,639.341a1.458,1.458,0,0,1-.589-.764,4.75,4.75,0,0,1-.259-1.359c-.042-.554-.059-1.227-.059-2.022q0-.788.038-1.55a5.978,5.978,0,0,1,.207-1.359,2.214,2.214,0,0,1,.525-.965,1.318,1.318,0,0,1,1-.371,1.332,1.332,0,0,1,.687.18,1.517,1.517,0,0,1,.519.521,2.574,2.574,0,0,1,.311.845,5.055,5.055,0,0,1,.079,1.16Z" transform="translate(-44.485 -630.946)" fill="#1a1818"/>
        <path id="Path_1197" data-name="Path 1197" d="M65.912,631.046h1.882a1.072,1.072,0,0,1,.612.172,1.289,1.289,0,0,1,.408.5,2.725,2.725,0,0,1,.233.793,6.607,6.607,0,0,1,.074,1.028,7.094,7.094,0,0,1-.049.787,3.007,3.007,0,0,1-.187.8,1.625,1.625,0,0,1-.421.618,1.062,1.062,0,0,1-.734.248h-.775v3.4H65.912Zm1.044,3.666h.58a.3.3,0,0,0,.215-.1.866.866,0,0,0,.166-.256,1.7,1.7,0,0,0,.108-.358,2.32,2.32,0,0,0,.037-.411c0-.17-.009-.332-.023-.487a1.7,1.7,0,0,0-.09-.4.673.673,0,0,0-.181-.271.421.421,0,0,0-.289-.1h-.522Z" transform="translate(-42.492 -630.902)" fill="#1a1818"/>
        <path id="Path_1198" data-name="Path 1198" d="M68.431,639.4v-8.349h2.722v1.285H69.474v2.057h1.548v1.284H69.474v2.44h1.737V639.4Z" transform="translate(-41.175 -630.903)" fill="#1a1818"/>
        <path id="Path_1199" data-name="Path 1199" d="M70.705,639.4v-8.349h1.41l1.327,5.782h.015v-5.782h.971V639.4H73.056l-1.361-6.1h-.015v6.1Z" transform="translate(-39.987 -630.903)" fill="#1a1818"/>
        <path id="Path_1200" data-name="Path 1200" d="M73.742,631.044h1.74a1.22,1.22,0,0,1,.831.277,1.806,1.806,0,0,1,.493.81,5.554,5.554,0,0,1,.238,1.3q.063.769.062,1.742v.757c0,.289-.012.592-.034.908a7.185,7.185,0,0,1-.13.932,3.047,3.047,0,0,1-.279.816,1.716,1.716,0,0,1-.484.583,1.2,1.2,0,0,1-.74.226h-1.7Zm1.043,7.064h.5a.513.513,0,0,0,.384-.154,1.089,1.089,0,0,0,.23-.5,5.224,5.224,0,0,0,.114-.9q.032-.547.032-1.335c0-.387,0-.752-.011-1.1a5.936,5.936,0,0,0-.081-.92,1.759,1.759,0,0,0-.216-.635.466.466,0,0,0-.421-.236h-.536Z" transform="translate(-38.4 -630.901)" fill="#1a1818"/>
        <path id="Path_1201" data-name="Path 1201" d="M76.5,639.4v-8.349h1.043V639.4Z" transform="translate(-36.956 -630.903)" fill="#1a1818"/>
        <path id="Path_1202" data-name="Path 1202" d="M77.769,639.4v-8.349h1.408l1.326,5.782h.013v-5.782h.976V639.4H80.117l-1.361-6.1H78.74v6.1Z" transform="translate(-36.296 -630.903)" fill="#1a1818"/>
        <path id="Path_1203" data-name="Path 1203" d="M83.088,633.658c0-.192-.006-.379-.018-.553a1.911,1.911,0,0,0-.084-.463.8.8,0,0,0-.192-.32.458.458,0,0,0-.332-.12.407.407,0,0,0-.373.252,2.142,2.142,0,0,0-.192.684,7.8,7.8,0,0,0-.074.988c0,.374-.009.761-.009,1.163,0,.653.011,1.183.035,1.583a5.336,5.336,0,0,0,.117.932.82.82,0,0,0,.227.443.572.572,0,0,0,.367.116.828.828,0,0,0,.266-.042,1.936,1.936,0,0,0,.252-.116v-1.851H82.51v-1.284H84.12V639.3c-.07.023-.163.05-.279.081s-.245.061-.379.093-.266.055-.4.076a2.874,2.874,0,0,1-.352.027,2.023,2.023,0,0,1-1.048-.236,1.467,1.467,0,0,1-.589-.764,4.8,4.8,0,0,1-.259-1.359q-.057-.831-.056-2.022c0-.525.011-1.041.037-1.55A6.064,6.064,0,0,1,81,632.289a2.226,2.226,0,0,1,.524-.965,1.479,1.479,0,0,1,1.687-.192,1.515,1.515,0,0,1,.519.521,2.574,2.574,0,0,1,.311.845,5.145,5.145,0,0,1,.079,1.16Z" transform="translate(-34.732 -630.95)" fill="#1a1818"/>
      </g>
    </g>
  </g>
</svg>
