<svg xmlns="http://www.w3.org/2000/svg" width="39" height="39" viewBox="0 0 39 39">
  <g id="sports_esports-24px" transform="translate(0 0.213)">
    <g id="Group_1" data-name="Group 1">
      <rect id="Rectangle_8" data-name="Rectangle 8" width="39" height="39" transform="translate(0 -0.213)" fill="none"/>
    </g>
    <g id="Group_3" data-name="Group 3" transform="translate(3.869 8.081)">
      <g id="Group_2" data-name="Group 2">
        <path id="Path_10" data-name="Path 10" d="M33.4,22.923,31.639,10.543A6.458,6.458,0,0,0,25.24,5H10.6a6.458,6.458,0,0,0-6.4,5.543L2.436,22.923a4.113,4.113,0,0,0,4.073,4.7h0a4.1,4.1,0,0,0,2.909-1.212l3.652-3.636h9.7L26.4,26.414a4.125,4.125,0,0,0,2.909,1.212h0A4.116,4.116,0,0,0,33.4,22.923ZM16.3,14.7H13.07v3.232H11.454V14.7H8.222V13.081h3.232V9.848H13.07v3.232H16.3Zm6.464-1.616a1.616,1.616,0,1,1,1.616-1.616A1.621,1.621,0,0,1,22.767,13.081ZM26,17.929a1.616,1.616,0,1,1,1.616-1.616A1.621,1.621,0,0,1,26,17.929Z" transform="translate(-2.394 -5)" />
      </g>
    </g>
  </g>
</svg>
