<svg id="Logo" xmlns="http://www.w3.org/2000/svg" width="244.358" height="29.772" viewBox="0 0 244.358 29.772">
  <path id="Path_12" data-name="Path 12" d="M25.9-15.2a9.969,9.969,0,0,0-3.815-4.524,10.9,10.9,0,0,0-6.025-1.647,11.411,11.411,0,0,0-5.838,1.5,10.722,10.722,0,0,0-4.086,4.274,13.324,13.324,0,0,0-1.5,6.442,13.446,13.446,0,0,0,1.5,6.463,10.689,10.689,0,0,0,4.086,4.295,11.411,11.411,0,0,0,5.838,1.5,11.379,11.379,0,0,0,5.483-1.313,10.156,10.156,0,0,0,3.92-3.753,12.317,12.317,0,0,0,1.689-5.692H14.892v-2.377H30.236V-7.9A14.76,14.76,0,0,1,28.151-.959a13.7,13.7,0,0,1-5.025,4.9,14.026,14.026,0,0,1-7.068,1.793,14.438,14.438,0,0,1-7.339-1.9,13.679,13.679,0,0,1-5.191-5.3,15.51,15.51,0,0,1-1.9-7.693,15.51,15.51,0,0,1,1.9-7.693,13.679,13.679,0,0,1,5.191-5.3,14.438,14.438,0,0,1,7.339-1.9A14.388,14.388,0,0,1,24.232-21.7a13.236,13.236,0,0,1,5.087,6.5ZM48.625-1.48H35.365L32.822,5.442H29.736L40.369-23.329h3.294L54.254,5.442H51.168ZM47.749-3.9,41.995-19.66,36.241-3.9ZM85.944-23.329V5.442H83.025V-17.533L72.767,5.442H70.641L60.383-17.45V5.442H57.465V-23.329H60.55L71.683,1.606,82.816-23.329Zm9.549-.375V5.442H92.574V-23.7ZM124.1,5.442h-2.919L105.041-19.076V5.442h-2.919V-23.7h2.919L121.178.772V-23.7H124.1ZM151.659-15.2a9.969,9.969,0,0,0-3.815-4.524,10.9,10.9,0,0,0-6.025-1.647,11.411,11.411,0,0,0-5.838,1.5,10.722,10.722,0,0,0-4.086,4.274,13.324,13.324,0,0,0-1.5,6.442,13.446,13.446,0,0,0,1.5,6.463,10.689,10.689,0,0,0,4.086,4.295,11.411,11.411,0,0,0,5.838,1.5A11.379,11.379,0,0,0,147.3,1.793a10.156,10.156,0,0,0,3.92-3.753,12.317,12.317,0,0,0,1.689-5.692H140.651v-2.377H156V-7.9A14.76,14.76,0,0,1,153.91-.959a13.7,13.7,0,0,1-5.025,4.9,14.026,14.026,0,0,1-7.068,1.793,14.438,14.438,0,0,1-7.339-1.9,13.679,13.679,0,0,1-5.191-5.3,15.51,15.51,0,0,1-1.9-7.693,15.51,15.51,0,0,1,1.9-7.693,13.679,13.679,0,0,1,5.191-5.3,14.438,14.438,0,0,1,7.339-1.9,14.388,14.388,0,0,1,8.173,2.335,13.236,13.236,0,0,1,5.087,6.5Z" transform="translate(-1.632 24.038)" />
  <path id="Path_13" data-name="Path 13" d="M28.519-24.072V4.917h-9.09v-11.3H10.79v11.3H1.7V-24.072h9.09v10.441h8.64V-24.072Zm12.98,0V-7.735a5.153,5.153,0,0,0,.88,3.173,3.334,3.334,0,0,0,2.846,1.167,3.514,3.514,0,0,0,2.907-1.167,4.912,4.912,0,0,0,.942-3.173V-24.072h9.049V-7.735A13.712,13.712,0,0,1,56.4-.672a11.012,11.012,0,0,1-4.709,4.4A14.884,14.884,0,0,1,45.02,5.2,14,14,0,0,1,38.49,3.73,10.5,10.5,0,0,1,34.047-.651a14.53,14.53,0,0,1-1.6-7.084V-24.072ZM81.462-9.946a6.912,6.912,0,0,1,4.074,2.518,7.054,7.054,0,0,1,1.454,4.4A7.172,7.172,0,0,1,84.471,2.85q-2.518,2.068-7.227,2.068H62.054V-24.072H76.835A11.274,11.274,0,0,1,83.8-22.148a6.607,6.607,0,0,1,2.539,5.61A6.836,6.836,0,0,1,85-12.259,6.317,6.317,0,0,1,81.462-9.946ZM71.144-12.771h3.521a2.821,2.821,0,0,0,1.822-.491,1.854,1.854,0,0,0,.594-1.515,1.97,1.97,0,0,0-.594-1.576,2.739,2.739,0,0,0-1.822-.512H71.144Zm4.135,10.4A2.91,2.91,0,0,0,77.1-2.842a1.844,1.844,0,0,0,.594-1.535q0-2.088-2.416-2.088H71.144v4.095Z" transform="translate(157.368 24.072)" />
</svg>
