<svg width="48" height="45" viewBox="0 0 48 45" fill="none" xmlns="http://www.w3.org/2000/svg%22%3E">
	<path d="M19.7901 16.783C19.173 15.1762 18.0896 13.7905 16.6791 12.804C15.2328 11.8232 13.5171 11.3171 11.7701 11.356C10.0898 11.3315 8.43775 11.7896 7.01005 12.676C5.56797 13.5926 4.41104 14.8943 3.67005 16.434C2.8241 18.2007 2.40615 20.1417 2.45005 22.1C2.40762 24.0639 2.82543 26.0105 3.67005 27.784C4.40593 29.3309 5.56192 30.6397 7.00605 31.561C8.4349 32.4481 10.0884 32.9062 11.7701 32.881C13.337 32.9038 14.8812 32.5049 16.2411 31.726C17.5876 30.937 18.6939 29.7962 19.4411 28.426C20.2742 26.884 20.7426 25.1714 20.8101 23.42H10.8101V21.33H23.3261V23.2C23.2432 25.3397 22.6611 27.4304 21.6261 29.305C20.6566 31.0729 19.2436 32.5579 17.5261 33.614C15.7938 34.6704 13.7988 35.217 11.7701 35.191C9.65592 35.2157 7.57863 34.6367 5.78205 33.522C3.97071 32.3872 2.50633 30.7761 1.54905 28.865C0.493418 26.7685 -0.0374511 24.447 0.00205404 22.1C-0.0374511 19.753 0.493418 17.4315 1.54905 15.335C2.50618 13.4235 3.97058 11.8121 5.78205 10.677C7.57873 9.56267 9.65602 8.98403 11.7701 9.009C14.1541 8.96086 16.4904 9.68062 18.4341 11.062C20.3804 12.4884 21.831 14.4888 22.5821 16.782L19.7901 16.783Z"/>
	<path d="M47.3401 8.97499V34.953H39.7921V24.826H32.6181V34.953H25.0701V8.97499H32.6181V18.331H39.7921V8.97499H47.3401Z" fill="#9B5DF7"/>
</svg>