<svg width="48" height="45" viewBox="0 0 48 45" fill="none" xmlns="http://www.w3.org/2000/svg%22%3E">
	<path d="M19.788 16.783C19.1709 15.1762 18.0875 13.7905 16.677 12.804C15.2308 11.8232 13.515 11.3171 11.768 11.356C10.0877 11.3315 8.43569 11.7896 7.00799 12.676C5.56591 13.5926 4.40898 14.8943 3.66799 16.434C2.82204 18.2007 2.40409 20.1417 2.44799 22.1C2.40556 24.0639 2.82337 26.0105 3.66799 27.784C4.40387 29.3309 5.55986 30.6397 7.00399 31.561C8.43284 32.4481 10.0864 32.9062 11.768 32.881C13.3349 32.9038 14.8792 32.5049 16.239 31.726C17.5856 30.937 18.6918 29.7962 19.439 28.426C20.2722 26.884 20.7405 25.1714 20.808 23.42H10.808V21.33H23.324V23.2C23.2412 25.3397 22.659 27.4304 21.624 29.305C20.6545 31.0729 19.2415 32.5579 17.524 33.614C15.7918 34.6704 13.7968 35.217 11.768 35.191C9.65386 35.2157 7.57657 34.6367 5.77999 33.522C3.96865 32.3872 2.50427 30.7761 1.54699 28.865C0.491359 26.7685 -0.039511 24.447 -5.89318e-06 22.1C-0.039511 19.753 0.491359 17.4315 1.54699 15.335C2.50412 13.4235 3.96852 11.8121 5.77999 10.677C7.57667 9.56267 9.65396 8.98403 11.768 9.009C14.152 8.96086 16.4884 9.68062 18.432 11.062C20.3783 12.4884 21.8289 14.4888 22.58 16.782L19.788 16.783Z" fill="#1B1A1F"/>
	<path d="M47.338 8.97499V34.953H39.79V24.826H32.616V34.953H25.068V8.97499H32.616V18.331H39.79V8.97499H47.338Z" fill="#9B5DF7"/>
</svg>