<svg xmlns="http://www.w3.org/2000/svg" width="48.017" height="47" viewBox="0 0 48.017 47">
  <g id="GH_Oscuro" data-name="GH Oscuro" transform="translate(-19.632 -209.953)">
    <rect id="Fondo_claro" data-name="Fondo claro" width="48" height="47" transform="translate(19.649 209.953)" fill="none"/>
    <path id="Path_239" data-name="Path 239" d="M21.42-16.264a8.632,8.632,0,0,0-3.111-3.979A8.412,8.412,0,0,0,13.4-21.691a8.782,8.782,0,0,0-4.76,1.32A9.159,9.159,0,0,0,5.3-16.613,12.472,12.472,0,0,0,4.08-10.947,12.587,12.587,0,0,0,5.3-5.263,9.135,9.135,0,0,0,8.636-1.486,8.782,8.782,0,0,0,13.4-.166a8.739,8.739,0,0,0,4.471-1.155,8.592,8.592,0,0,0,3.2-3.3A11.459,11.459,0,0,0,22.44-9.627h-10v-2.09H24.956v1.87a13.729,13.729,0,0,1-1.7,6.105,11.614,11.614,0,0,1-4.1,4.309A10.79,10.79,0,0,1,13.4,2.144,11.112,11.112,0,0,1,7.412.475,11.655,11.655,0,0,1,3.179-4.182a14.5,14.5,0,0,1-1.547-6.765,14.5,14.5,0,0,1,1.547-6.765A11.655,11.655,0,0,1,7.412-22.37,11.112,11.112,0,0,1,13.4-24.038a11.116,11.116,0,0,1,6.664,2.053,11.548,11.548,0,0,1,4.148,5.72Z" transform="translate(18 244)" fill="#1b1a1f"/>
    <path id="GH_Claro" data-name="GH Claro" d="M23.97-24.072V1.906H16.422V-8.221H9.248V1.906H1.7V-24.072H9.248v9.356h7.174v-9.356Z" transform="translate(43 244)" fill="#9b5df7"/>
  </g>
</svg>
